<svg width="32" height="32" viewBox="0 0 32 32" fill="none" xmlns="http://www.w3.org/2000/svg">
<path fill-rule="evenodd" clip-rule="evenodd" d="M9.83455 11.312H8.04877C7.71674 11.312 7.44727 11.0425 7.44727 10.7105V8.37103C7.44727 8.039 7.71674 7.76953 8.04877 7.76953H10.0947C10.4267 7.76953 10.6962 8.039 10.6962 8.37103C10.6962 8.70306 10.4267 8.97253 10.0947 8.97253H8.65027V10.109H9.83455C10.1666 10.109 10.4361 10.3784 10.4361 10.7105C10.4361 11.0425 10.1666 11.312 9.83455 11.312Z" fill="#465166"/>
<mask id="mask0" mask-type="alpha" maskUnits="userSpaceOnUse" x="5" y="9" width="7" height="11">
<path fill-rule="evenodd" clip-rule="evenodd" d="M5.33301 9.06775H11.2151V19.4991H5.33301V9.06775Z" fill="white"/>
</mask>
<g mask="url(#mask0)">
<path fill-rule="evenodd" clip-rule="evenodd" d="M10.6136 19.4991H9.12273C7.03298 19.4991 5.33301 17.7991 5.33301 15.7094V9.66925C5.33301 9.33722 5.60248 9.06775 5.93451 9.06775C6.26654 9.06775 6.53601 9.33722 6.53601 9.66925V15.7094C6.53601 17.1356 7.6965 18.2961 9.12273 18.2961H10.6136C10.9457 18.2961 11.2151 18.5656 11.2151 18.8976C11.2151 19.2296 10.9457 19.4991 10.6136 19.4991Z" fill="url(#paint0_linear)"/>
</g>
<path fill-rule="evenodd" clip-rule="evenodd" d="M23.9234 23.5346C23.5914 23.5346 23.3219 23.2651 23.3219 22.9331V6.36403C23.3219 5.72377 22.8011 5.203 22.1606 5.203H12.377C11.7365 5.203 11.2157 5.72377 11.2157 6.36403V22.9331C11.2157 23.2651 10.9462 23.5346 10.6142 23.5346C10.2822 23.5346 10.0127 23.2651 10.0127 22.9331V6.36403C10.0127 5.06078 11.0735 4 12.377 4H22.1606C23.4641 4 24.5249 5.06078 24.5249 6.36403V22.9331C24.5249 23.2651 24.2554 23.5346 23.9234 23.5346Z" fill="#465166"/>
<path fill-rule="evenodd" clip-rule="evenodd" d="M26.9404 24.1262H7.62396C7.29193 24.1262 7.02246 23.8567 7.02246 23.5247C7.02246 23.1927 7.29193 22.9232 7.62396 22.9232H26.9404C27.2724 22.9232 27.5419 23.1927 27.5419 23.5247C27.5419 23.8567 27.2724 24.1262 26.9404 24.1262Z" fill="#465166"/>
<path fill-rule="evenodd" clip-rule="evenodd" d="M13.8093 7.73735C13.5661 7.73735 13.368 7.93544 13.368 8.17871V12.4617C13.368 12.7049 13.5661 12.903 13.8093 12.903H20.7432C20.9867 12.903 21.1848 12.7049 21.1848 12.4617V8.17871C21.1848 7.93544 20.9867 7.73735 20.7432 7.73735H13.8093ZM20.7442 14.1043H13.8104C12.9036 14.1043 12.166 13.3664 12.166 12.4599V8.17696C12.166 7.27043 12.9036 6.53259 13.8104 6.53259H20.7442C21.651 6.53259 22.3888 7.27043 22.3888 8.17696V12.4599C22.3888 13.3664 21.651 14.1043 20.7442 14.1043Z" fill="#465166"/>
<path fill-rule="evenodd" clip-rule="evenodd" d="M26.1992 13.3766C25.8671 13.3766 25.5977 13.1071 25.5977 12.7751V7.42706C25.5977 7.09503 25.8671 6.82556 26.1992 6.82556C26.5312 6.82556 26.8007 7.09503 26.8007 7.42706V12.7751C26.8007 13.1071 26.5312 13.3766 26.1992 13.3766Z" fill="#465166"/>
<mask id="mask1" mask-type="alpha" maskUnits="userSpaceOnUse" x="14" y="25" width="14" height="2">
<path fill-rule="evenodd" clip-rule="evenodd" d="M14.1689 25.4635H27.5762V26.6665H14.1689V25.4635Z" fill="white"/>
</mask>
<g mask="url(#mask1)">
<path fill-rule="evenodd" clip-rule="evenodd" d="M26.9747 26.6665H14.7704C14.4381 26.6665 14.1689 26.397 14.1689 26.065C14.1689 25.733 14.4381 25.4635 14.7704 25.4635H26.9747C27.3068 25.4635 27.5762 25.733 27.5762 26.065C27.5762 26.397 27.3068 26.6665 26.9747 26.6665Z" fill="url(#paint1_linear)"/>
</g>
<path fill-rule="evenodd" clip-rule="evenodd" d="M11.8486 26.6614H7.55951C7.22748 26.6614 6.95801 26.3919 6.95801 26.0599C6.95801 25.7278 7.22748 25.4584 7.55951 25.4584H11.8486C12.1806 25.4584 12.4501 25.7278 12.4501 26.0599C12.4501 26.3919 12.1806 26.6614 11.8486 26.6614Z" fill="url(#paint2_linear)"/>
<defs>
<linearGradient id="paint0_linear" x1="8.27408" y1="3.85208" x2="-0.651962" y2="8.88538" gradientUnits="userSpaceOnUse">
<stop stop-color="#F69B00"/>
<stop offset="1" stop-color="#ED6A00"/>
</linearGradient>
<linearGradient id="paint1_linear" x1="20.8726" y1="24.862" x2="20.6584" y2="27.2488" gradientUnits="userSpaceOnUse">
<stop stop-color="#F69B00"/>
<stop offset="1" stop-color="#ED6A00"/>
</linearGradient>
<linearGradient id="paint2_linear" x1="9.70406" y1="24.8569" x2="9.20117" y2="27.1527" gradientUnits="userSpaceOnUse">
<stop stop-color="#F69B00"/>
<stop offset="1" stop-color="#ED6A00"/>
</linearGradient>
</defs>
</svg>
