<svg width="32" height="32" viewBox="0 0 32 32" fill="none" xmlns="http://www.w3.org/2000/svg">
<path fill-rule="evenodd" clip-rule="evenodd" d="M12.5859 14.9657C12.5859 15.6315 12.0694 16.1715 11.4321 16.1715C10.7948 16.1715 10.2783 15.6315 10.2783 14.9657C10.2783 14.2998 10.7948 13.7598 11.4321 13.7598C12.0694 13.7598 12.5859 14.2998 12.5859 14.9657Z" fill="#F17D01"/>
<path fill-rule="evenodd" clip-rule="evenodd" d="M8.53605 13.0881V16.488C8.53605 17.9802 9.24248 18.7091 10.634 19.6074L11.3539 20.072L12.0736 19.6074H12.0739C13.4654 18.7091 14.1721 17.9802 14.1721 16.488V13.0839L11.3989 11.8706L8.53605 13.0881ZM11.3533 21.2829C11.2562 21.2829 11.1591 21.2551 11.0734 21.1997L10.0735 20.5544C8.46602 19.5171 7.46973 18.4748 7.46973 16.4875V12.713C7.46973 12.4865 7.60116 12.2825 7.80175 12.1971L11.2006 10.7517C11.3308 10.6965 11.4769 10.6972 11.6072 10.7539L14.9101 12.1994C15.1081 12.286 15.2371 12.4885 15.2371 12.713V16.4875C15.2371 18.4748 14.2408 19.5171 12.6331 20.5544L11.6335 21.1997C11.5477 21.2551 11.4506 21.2829 11.3533 21.2829Z" fill="#465166"/>
<path fill-rule="evenodd" clip-rule="evenodd" d="M18.7843 14.4845C19.7003 14.4845 19.702 12.9965 18.7843 12.9965C17.8683 12.9965 17.8666 14.4845 18.7843 14.4845Z" fill="#465166"/>
<path fill-rule="evenodd" clip-rule="evenodd" d="M18.7843 16.9326C19.7003 16.9326 19.702 15.4446 18.7843 15.4446C17.8683 15.4446 17.8666 16.9326 18.7843 16.9326Z" fill="#465166"/>
<path fill-rule="evenodd" clip-rule="evenodd" d="M18.7843 19.4373C19.7003 19.4373 19.702 17.9492 18.7843 17.9492C17.8683 17.9492 17.8666 19.4373 18.7843 19.4373Z" fill="#465166"/>
<path fill-rule="evenodd" clip-rule="evenodd" d="M24.2904 14.2821H20.736C20.4418 14.2821 20.2031 14.0327 20.2031 13.7252C20.2031 13.4178 20.4418 13.1683 20.736 13.1683H24.2904C24.5845 13.1683 24.8232 13.4178 24.8232 13.7252C24.8232 14.0327 24.5845 14.2821 24.2904 14.2821Z" fill="#F17D01"/>
<path fill-rule="evenodd" clip-rule="evenodd" d="M24.2904 16.6735H20.736C20.4418 16.6735 20.2031 16.424 20.2031 16.1166C20.2031 15.8092 20.4418 15.5597 20.736 15.5597H24.2904C24.5845 15.5597 24.8232 15.8092 24.8232 16.1166C24.8232 16.424 24.5845 16.6735 24.2904 16.6735Z" fill="#F17D01"/>
<path fill-rule="evenodd" clip-rule="evenodd" d="M24.2904 19.0644H20.736C20.4418 19.0644 20.2031 18.8149 20.2031 18.5075C20.2031 18.2001 20.4418 17.9506 20.736 17.9506H24.2904C24.5845 17.9506 24.8232 18.2001 24.8232 18.5075C24.8232 18.8149 24.5845 19.0644 24.2904 19.0644Z" fill="#F17D01"/>
<path fill-rule="evenodd" clip-rule="evenodd" d="M24.8821 24H19.7898C19.4957 24 19.257 23.7505 19.257 23.4431C19.257 23.1357 19.4957 22.8862 19.7898 22.8862H24.8821C26.0134 22.8862 26.9339 21.9241 26.9339 20.7417V11.2583C26.9339 10.0759 26.0134 9.11381 24.8821 9.11381H7.11747C5.98619 9.11381 5.06568 10.0759 5.06568 11.2583V20.7417C5.06568 21.9241 5.98619 22.8862 7.11747 22.8862H17.236C17.5301 22.8862 17.7688 23.1357 17.7688 23.4431C17.7688 23.7505 17.5301 24 17.236 24H7.11747C5.39865 24 4 22.5384 4 20.7417V11.2583C4 9.46181 5.39865 8 7.11747 8H24.8821C26.6012 8 27.9996 9.46181 27.9996 11.2583V20.7417C27.9996 22.5384 26.6012 24 24.8821 24Z" fill="#465166"/>
</svg>
