<svg width="32" height="32" viewBox="0 0 32 32" fill="none" xmlns="http://www.w3.org/2000/svg">
<mask id="mask0" mask-type="alpha" maskUnits="userSpaceOnUse" x="4" y="7" width="24" height="16">
<path fill-rule="evenodd" clip-rule="evenodd" d="M4 7H28V22.8748H4V7Z" fill="white"/>
</mask>
<g mask="url(#mask0)">
<path fill-rule="evenodd" clip-rule="evenodd" d="M23.9771 22.8747H17.8918C17.5763 22.8747 17.3202 22.6199 17.3202 22.3059C17.3202 21.9919 17.5763 21.7371 17.8918 21.7371H23.9771C25.565 21.7371 26.8568 20.4516 26.8568 18.8715V11.0031C26.8568 9.42305 25.565 8.13752 23.9771 8.13752H8.02292C6.43509 8.13752 5.14323 9.42305 5.14323 11.0031V18.8715C5.14323 20.4516 6.43509 21.7371 8.02292 21.7371H14.5787C14.8943 21.7371 15.1503 21.9919 15.1503 22.3059C15.1503 22.6199 14.8943 22.8747 14.5787 22.8747H8.02292C5.80479 22.8747 4 21.0788 4 18.8715V11.0031C4 8.79583 5.80479 6.99988 8.02292 6.99988H23.9771C26.1953 6.99988 28.0001 8.79583 28.0001 11.0031V18.8715C28.0001 21.0788 26.1953 22.8747 23.9771 22.8747Z" fill="#465166"/>
</g>
<path fill-rule="evenodd" clip-rule="evenodd" d="M15.129 16.4995C14.9344 16.4995 14.7448 16.4007 14.6376 16.2224L13.2881 13.9752C13.126 13.7055 13.2147 13.3561 13.4855 13.1951C13.7563 13.034 14.1074 13.122 14.2695 13.3915L15.6193 15.639C15.7811 15.9085 15.6927 16.2578 15.4216 16.4191C15.3299 16.4735 15.2288 16.4995 15.129 16.4995Z" fill="url(#paint0_linear)"/>
<path fill-rule="evenodd" clip-rule="evenodd" d="M13.3137 20.4477H11.7894C11.4739 20.4477 11.2178 20.1929 11.2178 19.8789C11.2178 19.5649 11.4739 19.3101 11.7894 19.3101H13.3137C13.6292 19.3101 13.8853 19.5649 13.8853 19.8789C13.8853 20.1929 13.6292 20.4477 13.3137 20.4477ZM17.3793 20.4477H15.855C15.5395 20.4477 15.2834 20.1929 15.2834 19.8789C15.2834 19.5649 15.5395 19.3101 15.855 19.3101H17.3793C17.6948 19.3101 17.9509 19.5649 17.9509 19.8789C17.9509 20.1929 17.6948 20.4477 17.3793 20.4477ZM20.9313 20.4477H19.9181C19.6026 20.4477 19.3465 20.1929 19.3465 19.8789C19.3465 19.5649 19.6026 19.3101 19.9181 19.3101H20.9313C21.2468 19.3101 21.5029 19.5649 21.5029 19.8789C21.5029 20.1929 21.2468 20.4477 20.9313 20.4477Z" fill="#465166"/>
<path fill-rule="evenodd" clip-rule="evenodd" d="M22.1276 17.2137C21.8141 17.2137 21.5588 16.9621 21.556 16.6496C21.5342 14.0268 19.6544 11.8617 16.9846 11.3847C16.6736 11.3293 16.4671 11.0335 16.5227 10.7243C16.5786 10.4149 16.8771 10.2116 17.1866 10.265C20.4059 10.8401 22.6728 13.4617 22.6992 16.64C22.7018 16.9543 22.4482 17.2109 22.1325 17.2137H22.1276Z" fill="url(#paint1_linear)"/>
<path fill-rule="evenodd" clip-rule="evenodd" d="M9.62752 17.3181C9.31402 17.3181 9.0587 17.0666 9.0559 16.7541C9.02923 13.5753 11.2502 10.9168 14.4571 10.2883C14.7667 10.2289 15.067 10.4288 15.1283 10.7368C15.1892 11.0452 14.9875 11.344 14.6778 11.4047C12.0187 11.9255 10.177 14.1214 10.1991 16.7445C10.2019 17.0587 9.94813 17.3153 9.63235 17.3181H9.62752Z" fill="url(#paint2_linear)"/>
<path fill-rule="evenodd" clip-rule="evenodd" d="M24.5229 24.9999H7.99935C7.68382 24.9999 7.42773 24.7451 7.42773 24.4311C7.42773 24.1171 7.68382 23.8623 7.99935 23.8623H24.5229C24.8384 23.8623 25.0945 24.1171 25.0945 24.4311C25.0945 24.7451 24.8384 24.9999 24.5229 24.9999Z" fill="#465166"/>
<defs>
<linearGradient id="paint0_linear" x1="14.4536" y1="11.422" x2="11.2209" y2="13.803" gradientUnits="userSpaceOnUse">
<stop stop-color="#F69B00"/>
<stop offset="1" stop-color="#ED6A00"/>
</linearGradient>
<linearGradient id="paint1_linear" x1="19.6065" y1="6.77788" x2="12.6971" y2="12.921" gradientUnits="userSpaceOnUse">
<stop stop-color="#F69B00"/>
<stop offset="1" stop-color="#ED6A00"/>
</linearGradient>
<linearGradient id="paint2_linear" x1="12.0974" y1="6.75769" x2="5.13155" y2="12.7768" gradientUnits="userSpaceOnUse">
<stop stop-color="#F69B00"/>
<stop offset="1" stop-color="#ED6A00"/>
</linearGradient>
</defs>
</svg>
