<svg width="32" height="32" viewBox="0 0 32 32" fill="none" xmlns="http://www.w3.org/2000/svg">
<circle cx="16" cy="17" r="9.5" stroke="#465166"/>
<path d="M16 9.37463C11.75 9.37463 8.375 12.8434 8.375 16.9996C8.375 21.1559 11.75 24.6246 16 24.6246C20.2188 24.6246 23.625 21.1871 23.625 16.9996C23.625 12.8121 20.2188 9.37463 16 9.37463ZM9.15625 18.4059C12.0312 18.6246 14.3437 20.9371 14.5312 23.8121C11.8437 23.2496 9.71875 21.1246 9.15625 18.4059ZM17.4688 23.8434C17.6562 20.9684 19.9688 18.6246 22.8438 18.4371C22.2813 21.1246 20.1562 23.2496 17.4688 23.8434ZM22.6875 14.9996C22.875 15.6559 22.9687 16.3746 22.9687 16.9996C22.9687 17.1871 22.9688 17.4371 22.9375 17.6559C22.9375 17.7496 22.875 17.8121 22.7812 17.8121C19.5938 18.0309 17.0312 20.6246 16.8125 23.8434C16.8125 24.0621 16.4062 24.0309 15.875 24.0309C15.5312 24.0309 15.1562 24.0621 15.125 23.8434C14.9062 20.6559 12.3438 18.0621 9.15625 17.8121C9 17.8121 9 17.5621 9 17.3434C9 17.2496 9 17.1246 9 17.0309C9 16.6559 9.125 15.0309 9.375 14.9371C11.4375 13.9684 13.6563 13.4996 15.9688 13.4996C19.3125 13.4684 22.625 14.7184 22.6875 14.9996ZM16 12.8434C13.7812 12.8434 11.6562 13.2809 9.625 14.1246C10.75 11.6871 13.1875 9.99963 16 9.99963C18.8125 9.99963 21.25 11.6871 22.375 14.0934C20.3438 13.2809 18.2188 12.8434 16 12.8434Z" fill="#465166"/>
<path d="M13.6562 17C13.6562 18.3125 14.7188 19.375 16 19.375C17.3125 19.375 18.3438 18.3125 18.3438 17C18.3438 15.6875 17.2812 14.6562 16 14.6562C14.6875 14.6562 13.6562 15.6875 13.6562 17ZM17.7188 17C17.7188 17.9688 16.9375 18.75 16 18.75C15.0625 18.75 14.2812 17.9688 14.2812 17C14.2812 16.0312 15.0625 15.2812 16 15.2812C16.9375 15.2812 17.7188 16.0312 17.7188 17Z" fill="#F17D01"/>
</svg>
