<svg width="32" height="32" viewBox="0 0 32 32" fill="none" xmlns="http://www.w3.org/2000/svg">
<path fill-rule="evenodd" clip-rule="evenodd" d="M23.7441 24.1256H8.25517C5.90867 24.1256 4 22.235 4 19.9107V11.8897C4 10.1689 5.41355 8.76843 7.15114 8.76843H10.4389C10.7608 8.76843 11.0221 9.02726 11.0221 9.34617C11.0221 9.66533 10.7608 9.9239 10.4389 9.9239H7.15114C6.05695 9.9239 5.16651 10.8059 5.16651 11.8897V19.9107C5.16651 21.5977 6.55207 22.9701 8.25517 22.9701H23.7441C25.4472 22.9701 26.833 21.5977 26.833 19.9107V11.8897C26.833 10.8059 25.9426 9.9239 24.8484 9.9239H21.7621C21.4401 9.9239 21.1788 9.66533 21.1788 9.34617C21.1788 9.02726 21.4401 8.76843 21.7621 8.76843H24.8484C26.586 8.76843 27.9995 10.1689 27.9995 11.8897V19.9107C27.9995 22.235 26.0906 24.1256 23.7441 24.1256Z" fill="#465166"/>
<path fill-rule="evenodd" clip-rule="evenodd" d="M23.2709 26H8.72783C6.38159 26 4.47266 24.1094 4.47266 21.7851C4.47266 21.4662 4.73395 21.2074 5.05591 21.2074C5.37813 21.2074 5.63917 21.4662 5.63917 21.7851C5.63917 23.4721 7.02472 24.8445 8.72783 24.8445H23.2709C24.974 24.8445 26.3595 23.4721 26.3595 21.7851C26.3595 21.4662 26.6208 21.2074 26.9428 21.2074C27.2647 21.2074 27.526 21.4662 27.526 21.7851C27.526 24.1094 25.6174 26 23.2709 26Z" fill="#465166"/>
<path fill-rule="evenodd" clip-rule="evenodd" d="M18.5222 9.9239H13.4915C13.1695 9.9239 12.9082 9.66507 12.9082 9.34617C12.9082 9.02726 13.1695 8.76843 13.4915 8.76843H18.5222C18.8442 8.76843 19.1055 9.02726 19.1055 9.34617C19.1055 9.66507 18.8442 9.9239 18.5222 9.9239Z" fill="#465166"/>
<path fill-rule="evenodd" clip-rule="evenodd" d="M12.8346 17.9817H11.779C11.3904 17.9817 11.0752 17.7234 11.0752 17.4044C11.0752 17.0858 11.3904 16.8275 11.779 16.8275H12.8346C13.2231 16.8275 13.5383 17.0858 13.5383 17.4044C13.5383 17.7234 13.2231 17.9817 12.8346 17.9817ZM16.5197 17.9806H15.4641C15.0755 17.9806 14.7603 17.7223 14.7603 17.4034C14.7603 17.0847 15.0755 16.8264 15.4641 16.8264H16.5197C16.9085 16.8264 17.2237 17.0847 17.2237 17.4034C17.2237 17.7223 16.9085 17.9806 16.5197 17.9806ZM20.2047 17.9806H19.1488C18.76 17.9806 18.445 17.7223 18.445 17.4034C18.445 17.0847 18.76 16.8264 19.1488 16.8264H20.2047C20.5932 16.8264 20.9082 17.0847 20.9082 17.4034C20.9082 17.7223 20.5932 17.9806 20.2047 17.9806Z" fill="url(#paint0_linear)"/>
<path fill-rule="evenodd" clip-rule="evenodd" d="M12.8346 15.5578H11.779C11.3904 15.5578 11.0752 15.2992 11.0752 14.9805C11.0752 14.6619 11.3904 14.4033 11.779 14.4033H12.8346C13.2231 14.4033 13.5383 14.6619 13.5383 14.9805C13.5383 15.2992 13.2231 15.5578 12.8346 15.5578ZM16.5197 15.5578H15.4641C15.0755 15.5578 14.7603 15.2992 14.7603 14.9806C14.7603 14.6619 15.0755 14.4033 15.4641 14.4033H16.5197C16.9085 14.4033 17.2237 14.6619 17.2237 14.9806C17.2237 15.2992 16.9085 15.5578 16.5197 15.5578ZM20.2047 15.5578H19.1488C18.76 15.5578 18.445 15.2992 18.445 14.9806C18.445 14.6619 18.76 14.4033 19.1488 14.4033H20.2047C20.5932 14.4033 20.9082 14.6619 20.9082 14.9806C20.9082 15.2992 20.5932 15.5578 20.2047 15.5578Z" fill="url(#paint1_linear)"/>
<path fill-rule="evenodd" clip-rule="evenodd" d="M12.8346 20.2973H11.779C11.3904 20.2973 11.0752 20.0387 11.0752 19.7201C11.0752 19.4014 11.3904 19.1429 11.779 19.1429H12.8346C13.2231 19.1429 13.5383 19.4014 13.5383 19.7201C13.5383 20.0387 13.2231 20.2973 12.8346 20.2973ZM16.5197 20.2967H15.4641C15.0755 20.2967 14.7603 20.0381 14.7603 19.7194C14.7603 19.4008 15.0755 19.1422 15.4641 19.1422H16.5197C16.9085 19.1422 17.2237 19.4008 17.2237 19.7194C17.2237 20.0381 16.9085 20.2967 16.5197 20.2967ZM20.2047 20.2967H19.1488C18.76 20.2967 18.445 20.0381 18.445 19.7194C18.445 19.4008 18.76 19.1422 19.1488 19.1422H20.2047C20.5932 19.1422 20.9082 19.4008 20.9082 19.7194C20.9082 20.0381 20.5932 20.2967 20.2047 20.2967Z" fill="url(#paint2_linear)"/>
<path fill-rule="evenodd" clip-rule="evenodd" d="M11.9035 7.15601C11.5976 7.15601 11.3487 7.40251 11.3487 7.70549V10.7944C11.3487 11.0977 11.5976 11.3442 11.9035 11.3442H12.0251C12.3309 11.3442 12.5798 11.0977 12.5798 10.7944V7.70549C12.5798 7.40251 12.3309 7.15601 12.0251 7.15601H11.9035ZM12.0254 12.4991H11.9039C10.9548 12.4991 10.1826 11.7342 10.1826 10.7939V7.70496C10.1826 6.76492 10.9548 6 11.9039 6H12.0254C12.9747 6 13.7467 6.76492 13.7467 7.70496V10.7939C13.7467 11.7342 12.9747 12.4991 12.0254 12.4991Z" fill="#465166"/>
<path fill-rule="evenodd" clip-rule="evenodd" d="M20.136 7.15564C19.8301 7.15564 19.5813 7.40214 19.5813 7.70513V10.7941C19.5813 11.0973 19.8301 11.3438 20.136 11.3438H20.2576C20.5635 11.3438 20.8123 11.0973 20.8123 10.7941V7.70513C20.8123 7.40214 20.5635 7.15564 20.2576 7.15564H20.136ZM20.2579 12.4997H20.1363C19.1873 12.4997 18.415 11.7348 18.415 10.7945V7.70557C18.415 6.76553 19.1873 6.00061 20.1363 6.00061H20.2579C21.2071 6.00061 21.9791 6.76553 21.9791 7.70557V10.7945C21.9791 11.7348 21.2071 12.4997 20.2579 12.4997Z" fill="#465166"/>
<defs>
<linearGradient id="paint0_linear" x1="15.9917" y1="16.2488" x2="15.7239" y2="18.5278" gradientUnits="userSpaceOnUse">
<stop stop-color="#F69B00"/>
<stop offset="1" stop-color="#ED6A00"/>
</linearGradient>
<linearGradient id="paint1_linear" x1="15.9917" y1="13.8261" x2="15.7243" y2="16.1036" gradientUnits="userSpaceOnUse">
<stop stop-color="#F69B00"/>
<stop offset="1" stop-color="#ED6A00"/>
</linearGradient>
<linearGradient id="paint2_linear" x1="15.9917" y1="18.5647" x2="15.724" y2="20.8434" gradientUnits="userSpaceOnUse">
<stop stop-color="#F69B00"/>
<stop offset="1" stop-color="#ED6A00"/>
</linearGradient>
</defs>
</svg>
